<svg id="visual" viewBox="0 0 1920 1080" width="1920" height="1080" xmlns="http://www.w3.org/2000/svg" xmlns:xlink="http://www.w3.org/1999/xlink" version="1.1"><rect x="0" y="0" width="1920" height="1080" fill="#82C0CC"></rect><path d="M0 119L45.7 139.3C91.3 159.7 182.7 200.3 274.2 214.5C365.7 228.7 457.3 216.3 548.8 201C640.3 185.7 731.7 167.3 823 160.2C914.3 153 1005.7 157 1097 172.3C1188.3 187.7 1279.7 214.3 1371.2 235.5C1462.7 256.7 1554.3 272.3 1645.8 255.2C1737.3 238 1828.7 188 1874.3 163L1920 138L1920 0L1874.3 0C1828.7 0 1737.3 0 1645.8 0C1554.3 0 1462.7 0 1371.2 0C1279.7 0 1188.3 0 1097 0C1005.7 0 914.3 0 823 0C731.7 0 640.3 0 548.8 0C457.3 0 365.7 0 274.2 0C182.7 0 91.3 0 45.7 0L0 0Z" fill="#031926" stroke-linecap="round" stroke-linejoin="miter"></path></svg>