<svg id="visual" viewBox="0 0 1920 1080" width="1920" height="1080" xmlns="http://www.w3.org/2000/svg" xmlns:xlink="http://www.w3.org/1999/xlink" version="1.1"><rect x="0" y="0" width="1920" height="1080" fill="#031926"></rect><path d="M0 184L64 179.2C128 174.3 256 164.7 384 147.3C512 130 640 105 768 93.3C896 81.7 1024 83.3 1152 96.8C1280 110.3 1408 135.7 1536 158.3C1664 181 1792 201 1856 211L1920 221L1920 0L1856 0C1792 0 1664 0 1536 0C1408 0 1280 0 1152 0C1024 0 896 0 768 0C640 0 512 0 384 0C256 0 128 0 64 0L0 0Z" fill="#82C0CC" stroke-linecap="round" stroke-linejoin="miter"></path></svg>