<svg id="visual" viewBox="0 0 900 600" width="900" height="600" xmlns="http://www.w3.org/2000/svg" xmlns:xlink="http://www.w3.org/1999/xlink" version="1.1"><rect x="0" y="0" width="900" height="600" fill="#031926"></rect><path d="M0 408L21.5 425.5C43 443 86 478 128.8 477.8C171.7 477.7 214.3 442.3 257.2 423.7C300 405 343 403 385.8 421.2C428.7 439.3 471.3 477.7 514.2 473.8C557 470 600 424 642.8 423.7C685.7 423.3 728.3 468.7 771.2 484.7C814 500.7 857 487.3 878.5 480.7L900 474L900 601L878.5 601C857 601 814 601 771.2 601C728.3 601 685.7 601 642.8 601C600 601 557 601 514.2 601C471.3 601 428.7 601 385.8 601C343 601 300 601 257.2 601C214.3 601 171.7 601 128.8 601C86 601 43 601 21.5 601L0 601Z" fill="#82C0CC" stroke-linecap="round" stroke-linejoin="miter"></path></svg>